<svg xmlns="http://www.w3.org/2000/svg" viewBox="0 0 1200 900" role="img" aria-labelledby="t d"><title id="t">Bharatvarsha civilizational map</title><desc id="d">An antique parchment-style illustrated map of Bharatvarsha with ancient regions, mountains, rivers and sacred geography.</desc><defs><filter id="paper"><feTurbulence type="fractalNoise" baseFrequency=".9" numOctaves="2" stitchTiles="stitch"/><feColorMatrix type="saturate" values="0"/><feComponentTransfer><feFuncA type="table" tableValues="0 .08"/></feComponentTransfer></filter><linearGradient id="bg" x1="0" x2="1"><stop stop-color="#ead3a0"/><stop offset=".5" stop-color="#f6e7c4"/><stop offset="1" stop-color="#dfbf7d"/></linearGradient><radialGradient id="land"><stop stop-color="#f7e7bf"/><stop offset="1" stop-color="#dcb978"/></radialGradient></defs><rect width="1200" height="900" fill="url(#bg)"/><rect width="1200" height="900" filter="url(#paper)" opacity=".8"/><circle cx="620" cy="430" r="385" fill="none" stroke="#8b622f" stroke-width="3" opacity=".75"/><circle cx="620" cy="430" r="372" fill="none" stroke="#b68a46" opacity=".55"/><path d="M350 190 L430 145 L515 120 L585 145 L660 150 L730 180 L790 205 L860 245 L925 300 L900 350 L850 385 L835 430 L785 470 L750 505 L705 545 L675 595 L640 650 L605 720 L560 770 L520 735 L490 670 L460 610 L425 560 L390 515 L355 470 L310 420 L280 360 L295 305 L320 255 Z" fill="url(#land)" stroke="#7c572b" stroke-width="4"/><path d="M400 195 Q520 135 650 175 T860 260" fill="none" stroke="#8f6a3e" stroke-width="18" opacity=".3"/><path d="M405 185 Q520 125 650 165 T865 250" fill="none" stroke="#76502a" stroke-width="2"/><g fill="none" stroke="#9d743e" stroke-width="2" opacity=".8"><path d="M610 210 Q570 290 590 370 T560 560"/><path d="M740 260 Q700 345 710 430 T675 610"/><path d="M475 260 Q515 335 500 430 T520 650"/></g><g font-family="Georgia,serif" fill="#5a341c"><text x="450" y="230" font-size="22">Gandhara</text><text x="535" y="285" font-size="21">Kuru</text><text x="615" y="320" font-size="21">Panchala</text><text x="700" y="355" font-size="21">Kosala</text><text x="755" y="405" font-size="20">Videha</text><text x="690" y="460" font-size="21">Magadha</text><text x="805" y="455" font-size="20">Anga</text><text x="735" y="520" font-size="21">Kalinga</text><text x="580" y="505" font-size="21">Avanti</text><text x="505" y="565" font-size="20">Maharashtra</text><text x="555" y="625" font-size="20">Karnata</text><text x="600" y="685" font-size="20">Chola</text><text x="560" y="730" font-size="20">Pandya</text><text x="370" y="365" font-size="20">Sindhu</text><text x="340" y="445" font-size="19">Anarta</text><text x="860" y="365" font-size="18">Kamarupa</text></g><g fill="#7a4a28"><circle cx="450" cy="245" r="6"/><circle cx="545" cy="305" r="6"/><circle cx="635" cy="340" r="6"/><circle cx="715" cy="375" r="6"/><circle cx="705" cy="475" r="6"/><circle cx="755" cy="540" r="6"/><circle cx="585" cy="585" r="6"/><circle cx="610" cy="690" r="6"/></g><g stroke="#6d4726" fill="none" opacity=".75"><path d="M380 155 l18 -28 18 28 18 -32 18 32 18 -26 18 26"/><path d="M500 135 l20 -30 20 30 20 -34 20 34 20 -27 20 27"/><path d="M625 145 l20 -30 20 30 20 -35 20 35 20 -27 20 27"/></g><text x="620" y="90" text-anchor="middle" font-family="Georgia,serif" font-size="42" font-style="italic" fill="#6a311e">Bharatvarsha</text><text x="620" y="120" text-anchor="middle" font-family="Georgia,serif" font-size="18" letter-spacing="3" fill="#7c5b36">CIVILIZATIONAL GEOGRAPHY</text><text x="170" y="470" font-family="Georgia,serif" font-style="italic" font-size="28" fill="#80603e">Arabian Sea</text><text x="855" y="565" font-family="Georgia,serif" font-style="italic" font-size="28" fill="#80603e">Bay of Bengal</text><text x="590" y="830" text-anchor="middle" font-family="Georgia,serif" font-style="italic" font-size="26" fill="#80603e">Indian Ocean</text><g transform="translate(210 690)" stroke="#7b542e" fill="none"><circle r="62"/><circle r="10"/><path d="M0-58V58M-58 0H58M-40-40L40 40M40-40L-40 40"/></g><text x="210" y="617" text-anchor="middle" font-family="Georgia,serif" font-size="18" fill="#6d4726">N</text><text x="210" y="775" text-anchor="middle" font-family="Georgia,serif" font-size="18" fill="#6d4726">S</text><text x="132" y="696" text-anchor="middle" font-family="Georgia,serif" font-size="18" fill="#6d4726">W</text><text x="288" y="696" text-anchor="middle" font-family="Georgia,serif" font-size="18" fill="#6d4726">E</text></svg>